<?xml version="1.0" encoding="UTF-8"?>
<svg xmlns="http://www.w3.org/2000/svg" xmlns:xlink="http://www.w3.org/1999/xlink" version="1.1" viewBox="0 0 767.5 375.4">
  <defs>
    <style>
      .cls-1 {
        fill: none;
      }

      .cls-1, .cls-2, .cls-3, .cls-4, .cls-5, .cls-6, .cls-7, .cls-8, .cls-9, .cls-10, .cls-11, .cls-12, .cls-13, .cls-14, .cls-15, .cls-16 {
        stroke-width: 0px;
      }

      .cls-2 {
        fill: #1c2b33;
      }

      .cls-3 {
        fill: url(#linear-gradient);
      }

      .cls-4 {
        fill: url(#linear-gradient-11);
      }

      .cls-5 {
        fill: url(#linear-gradient-12);
      }

      .cls-6 {
        fill: url(#linear-gradient-13);
      }

      .cls-7 {
        fill: url(#linear-gradient-10);
      }

      .cls-8 {
        fill: url(#linear-gradient-4);
      }

      .cls-9 {
        fill: url(#linear-gradient-2);
      }

      .cls-10 {
        fill: url(#linear-gradient-3);
      }

      .cls-11 {
        fill: url(#linear-gradient-8);
      }

      .cls-12 {
        fill: url(#linear-gradient-9);
      }

      .cls-13 {
        fill: url(#linear-gradient-7);
      }

      .cls-14 {
        fill: url(#linear-gradient-5);
      }

      .cls-15 {
        fill: url(#linear-gradient-6);
      }

      .cls-16 {
        fill: #0082fb;
      }
    </style>
    <linearGradient id="linear-gradient" x1="166.3695373" y1="135.9679702" x2="136.042222" y2="175.7072863" gradientTransform="translate(0 272) scale(1 -1)" gradientUnits="userSpaceOnUse">
      <stop offset=".0006" stop-color="#0867df"/>
      <stop offset=".4539" stop-color="#0668e1"/>
      <stop offset=".8591" stop-color="#0064e0"/>
    </linearGradient>
    <linearGradient id="linear-gradient-2" x1="107.3285106" y1="161.7108381" x2="128.1197585" y2="177.4953924" gradientTransform="translate(0 272) scale(1 -1)" gradientUnits="userSpaceOnUse">
      <stop offset=".1323" stop-color="#0064df"/>
      <stop offset=".9988" stop-color="#0064e0"/>
    </linearGradient>
    <linearGradient id="linear-gradient-3" x1="98.5159195" y1="138.5476515" x2="106.8560486" y2="159.5423118" gradientTransform="translate(0 272) scale(1 -1)" gradientUnits="userSpaceOnUse">
      <stop offset=".0147" stop-color="#0072ec"/>
      <stop offset=".6881" stop-color="#0064df"/>
    </linearGradient>
    <linearGradient id="linear-gradient-4" x1="97.3834158" y1="123.3808576" x2="98.3484194" y2="136.2028596" gradientTransform="translate(0 272) scale(1 -1)" gradientUnits="userSpaceOnUse">
      <stop offset=".0731" stop-color="#007cf6"/>
      <stop offset=".9943" stop-color="#0072ec"/>
    </linearGradient>
    <linearGradient id="linear-gradient-5" x1="97.9162543" y1="116.4163995" x2="97.2259851" y2="121.553541" gradientTransform="translate(0 272) scale(1 -1)" gradientUnits="userSpaceOnUse">
      <stop offset=".0731" stop-color="#007ff9"/>
      <stop offset="1" stop-color="#007cf6"/>
    </linearGradient>
    <linearGradient id="linear-gradient-6" x1="97.5088188" y1="115.0667012" x2="101.8107047" y2="105.9424379" gradientTransform="translate(0 272) scale(1 -1)" gradientUnits="userSpaceOnUse">
      <stop offset=".0731" stop-color="#007ff9"/>
      <stop offset="1" stop-color="#0082fb"/>
    </linearGradient>
    <linearGradient id="linear-gradient-7" x1="163.6281109" y1="159.2150894" x2="169.31534" y2="167.0808275" gradientTransform="translate(0 272) scale(1 -1)" gradientUnits="userSpaceOnUse">
      <stop offset=".2799" stop-color="#007ff8"/>
      <stop offset=".9141" stop-color="#0082fb"/>
    </linearGradient>
    <linearGradient id="linear-gradient-8" x1="206.8685629" y1="169.4094338" x2="218.7662848" y2="125.642811" gradientTransform="translate(0 272) scale(1 -1)" gradientUnits="userSpaceOnUse">
      <stop offset="0" stop-color="#0082fb"/>
      <stop offset=".9995" stop-color="#0081fa"/>
    </linearGradient>
    <linearGradient id="linear-gradient-9" x1="221.6387442" y1="123.9684894" x2="214.1091171" y2="108.7525207" gradientTransform="translate(0 272) scale(1 -1)" gradientUnits="userSpaceOnUse">
      <stop offset=".0619" stop-color="#0081fa"/>
      <stop offset="1" stop-color="#0080f9"/>
    </linearGradient>
    <linearGradient id="linear-gradient-10" x1="208.1230399" y1="100.687962" x2="215.1615809" y2="105.4818945" gradientTransform="translate(0 272) scale(1 -1)" gradientUnits="userSpaceOnUse">
      <stop offset="0" stop-color="#027af3"/>
      <stop offset="1" stop-color="#0080f9"/>
    </linearGradient>
    <linearGradient id="linear-gradient-11" x1="197.0857834" y1="99.7483437" x2="206.866538" y2="99.7483437" gradientTransform="translate(0 272) scale(1 -1)" gradientUnits="userSpaceOnUse">
      <stop offset="0" stop-color="#0377ef"/>
      <stop offset=".9994" stop-color="#0279f1"/>
    </linearGradient>
    <linearGradient id="linear-gradient-12" x1="188.5824426" y1="105.1354538" x2="195.6140781" y2="100.998562" gradientTransform="translate(0 272) scale(1 -1)" gradientUnits="userSpaceOnUse">
      <stop offset=".0019" stop-color="#0471e9"/>
      <stop offset="1" stop-color="#0377ef"/>
    </linearGradient>
    <linearGradient id="linear-gradient-13" x1="167.1329907" y1="135.6396704" x2="189.6579394" y2="107.3189063" gradientTransform="translate(0 272) scale(1 -1)" gradientUnits="userSpaceOnUse">
      <stop offset=".2765" stop-color="#0867df"/>
      <stop offset="1" stop-color="#0471e9"/>
    </linearGradient>
  </defs>
  <g id="Artboard_outline" data-name="Artboard outline">
    <rect class="cls-1" width="767.5" height="375.4"/>
  </g>
  <g id="Layer_1" data-name="Layer 1">
    <g>
      <path class="cls-2" d="M253.9272947,92.900626h16.925116l28.7789987,52.0576661,28.7779985-52.0576661h16.559027v85.5418131h-13.808358v-65.5619518l-25.2361371,45.3980457h-12.9531501l-25.2341366-45.3980457v65.5619518h-13.8093583v-85.5418131Z"/>
      <path class="cls-2" d="M389.5102668,179.9698107c-6.3955553,0-12.0169224-1.4153444-16.8641011-4.2460331-4.8471788-2.8306887-8.6260978-6.7516427-11.3337562-11.762862-2.709659-5.010219-4.0639883-10.7536164-4.0639883-17.2301923,0-6.5575955,1.3243221-12.363008,3.9719659-17.414237,2.6476439-5.0502288,6.3245381-9.0021903,11.0296823-11.8538842,4.704144-2.8506936,10.111459-4.2770406,16.221945-4.2770406,6.069476,0,11.2927463,1.4363495,15.6718112,4.3080482,4.3790649,2.8716987,7.7498847,6.8946775,10.1124592,12.0679362s3.5448621,11.2427355,3.5448621,18.20743v3.7889219h-46.8653971c.855208,5.2142687,2.9627205,9.3182672,6.3235378,12.3119956,3.3608173,2.9937284,7.6078501,4.4910927,12.7400982,4.4910927,4.1140005,0,7.6578623-.6111487,10.6315855-1.8334461,2.9727229-1.2222974,5.7634016-3.0747481,8.3710357-5.5603529l7.3327832,8.9821854c-7.2927735,6.6806255-16.2339479,10.0204381-26.8245234,10.0204381ZM399.5927188,129.2254642c-2.8927035-2.9537187-6.6816249-4.4300779-11.3647638-4.4300779-4.5631097,0-8.3820384,1.5073668-11.4567862,4.5211-3.0767482,3.0157338-5.0212211,7.0677196-5.8354191,12.1599586h33.6061726c-.4080992-5.2142687-2.0575004-9.2972621-4.9492036-12.2509808Z"/>
      <path class="cls-2" d="M434.5432183,126.0176837h-12.7090907v-11.3037503h12.7090907v-18.6975493h13.3212396v18.6975493h19.3076954v11.3037503h-19.3076954v28.6559722c0,4.7661596.814198,8.1679873,2.4435943,10.2044828,1.6293962,2.0374957,4.4200749,3.0547432,8.3710357,3.0547432,1.7504257,0,3.2387876-.0710173,4.4600846-.2140521,1.2222972-.1420346,2.5666242-.3360818,4.0329808-.5801412v11.1817206c-1.5073666.4471088-3.2077801.8141981-5.1022408,1.0992675s-3.8799436.4281042-5.9574488.4281042c-14.3794969,0-21.5692454-7.8609126-21.5692454-23.5847384v-30.245359Z"/>
      <path class="cls-2" d="M536.5850337,178.4424391h-13.07618v-8.9211706c-2.3215646,3.3408128-5.2752829,5.9174398-8.8591544,7.7298807-3.5848718,1.8114407-7.6588625,2.7186615-12.2199718,2.7186615-5.621367,0-10.6015782-1.4353492-14.9396331-4.3070479-4.3390552-2.872699-7.7498847-6.82266-10.2344889-11.8538842-2.4846042-5.0302239-3.7269063-10.784624-3.7269063-17.2611998,0-6.5175858,1.262307-12.2819883,3.7879212-17.2922073,2.5256142-5.010219,6.0184636-8.9411755,10.4795485-11.7928693,4.4590844-2.8506936,9.5823303-4.2770406,15.3657368-4.2770406,4.3590601,0,8.2700112.8462059,11.7328533,2.5356169,3.4608416,1.6914115,6.3335402,4.0849939,8.6140948,7.1797469v-8.186992h13.07618v63.7285057ZM523.2647943,137.0153595c-1.4263469-3.624882-3.6768942-6.4865782-6.7516419-8.5850888-3.075748-2.0965101-6.6296122-3.1457654-10.662593-3.1457654-5.703387,0-10.2444913,1.9144658-13.6253135,5.7433974-3.3808222,3.8289316-5.0712333,9.0021903-5.0712333,15.5197761,0,6.5585958,1.628396,11.7518593,4.8881887,15.5807909,3.2577923,3.8289316,7.6778672,5.7433974,13.2582242,5.7433974,4.1150007,0,7.779892-1.0592577,10.9986747-3.1777732,3.2177825-2.1175152,5.5393471-4.9692091,6.965694-8.5540813v-19.1246532Z"/>
      <g>
        <path class="cls-3" d="M128.9281143,90c-.0435446,0-.0868422.0001579-.1304555.0003844l-.1780223,14.705273c.0407579-.000453.0814197-.0007893.1222188-.0007893h0c9.679155,0,17.1868163,7.6316235,33.5048951,35.1179343l.9947177,1.6733798.065111.1095068,9.1346274-13.7057574-.0632441-.1058415h0c-2.14979-3.4963105-4.215003-6.7131913-6.1956663-9.6506561-2.2970895-3.4034418-4.4938287-6.4438584-6.6257725-9.1584657-10.794705-13.7447719-19.8247813-18.9849683-30.6284093-18.9849683Z"/>
        <path class="cls-9" d="M128.7977824,90.0003844c-10.8560958.0558448-20.4536183,7.0758734-27.3838807,17.817891-.0202691.0314848-.0405588.0629764-.0608623.094468l12.7212807,6.9239888c.0206466-.0312582.0414306-.06264.0621458-.0937885,4.0468578-6.0929891,9.0829902-9.9793892,14.4833216-10.0372383.0407579-.000453.0814197-.0007893.1222188-.0007893l.1861355-14.704868c-.0436545-.000048-.0868696.0001098-.1303594.0003363Z"/>
        <path class="cls-10" d="M101.4138948,107.8181861c-.0202691.0314848-.0405588.0629764-.0608623.094468-4.5539291,7.0889903-7.9487567,15.788034-9.7834178,25.1726587-.0079553.0405932-.0158625.0812412-.0237491.1219717l14.2918254,3.3721561c.0074679-.0407304.0150045-.0815707.022493-.1222874,1.527659-8.2474946,4.4360277-15.8968132,8.2140674-21.6205171.0206466-.0312582.0414306-.06264.0621458-.0937885l-12.7225024-6.9246615Z"/>
        <path class="cls-8" d="M105.8602253,136.4571943l-14.2906105-3.3718404c-.0079553.0405932-.0158625.0812412-.0237491.1219717-1.0004216,5.1611379-1.5093942,10.4054801-1.5200744,15.6626716v.1274628l14.6568481,1.3112674c-.0011669-.0427347-.0023818-.0848105-.0033976-.1276413-.0072002-.3048948-.010845-.6139355-.0109548-.9271219.0073101-4.2514229.3987588-8.4934971,1.1695689-12.6744688.0072963-.0407442.0148329-.0815844.0223695-.1223011Z"/>
        <path class="cls-14" d="M105.1283198,154.8815734c-.2629083-1.510966-.4119238-3.0395448-.4457834-4.572846-.0011669-.0427347-.0023818-.0848105-.0033976-.1276413l-14.6533132-1.311089c.0000069.0425151.0000069.0850026,0,.1274628v.0083053c-.015485,3.0733427.2533675,6.1415375.8031323,9.1653502.007667.0409638.0152036.0811451.0229872.1219991l14.2986893-3.2891577c-.0076944-.0406069-.014977-.0815432-.0223146-.1223835Z"/>
        <path class="cls-15" d="M108.4675703,162.4675382c-1.5949048-1.7408521-2.7237364-4.2519857-3.3171144-7.4635401-.0075091-.0406481-.0147986-.0815707-.0221292-.1224247l-14.2995404,3.2895833c.007667.0409638.0152036.0811451.0229872.1219991,1.0808117,5.6746407,3.2005653,10.4039152,6.2360123,13.9816865.0269889.0318074.0540807.0635873.0812618.095326l11.3837038-9.810997c-.0284578-.0302561-.0569567-.0607731-.0851811-.0916332Z"/>
        <path class="cls-16" d="M150.8310264,121.7907505c-8.616869,13.2169922-13.8368718,21.5068783-13.8368718,21.5068783-11.4784876,17.9933256-15.4495198,22.0260781-21.8401416,22.0260781-2.6666561,0-4.894475-.9494433-6.601186-2.7644531-.0284509-.0302561-.056991-.0608829-.0851742-.0916332l-11.3798738,9.8072218c.0269889.0318074.0540739.0635873.0812618.095326,4.1913637,4.8856343,10.1075727,7.5964666,17.4265383,7.5964666,11.0730982,0,19.0369349-5.2203185,33.1944885-29.9681287,0,0,5.9018086-10.421981,9.9618245-17.6010532-2.5149912-4.0605376-4.8035832-7.5758199-6.9208657-10.6067025Z"/>
        <path class="cls-13" d="M166.1898464,100.9291689c-.0290618.0308327-.0586864.0623449-.0877208.0932737-2.3346763,2.5242574-4.5207352,5.1820042-6.5471671,7.9598007,2.1319576,2.7145868,4.3328151,5.7609612,6.6299046,9.164403,2.7073865-4.1786792,5.2345268-7.5630668,7.7114919-10.1570272.0292403-.0307434.0581373-.060725.0874874-.0911802l-7.7939961-6.96927Z"/>
        <path class="cls-16" d="M208.023848,99.6335649c-6.0092151-6.0710795-13.1746007-9.633359-20.8346682-9.633359-8.0771324,0-14.8712766,4.4262466-20.9993334,10.9289699-.0290618.0308327-.0586864.0623449-.0877208.0932737l7.7942295,6.9671902c.0292403-.0307434.0581373-.060725.0874874-.0911802,4.0370081-4.1991954,7.9437666-6.2956872,12.2747285-6.2956872h-.0001373c4.6613904,0,9.0254226,2.1943505,12.8049105,6.0412558.0295972.0301394.0590022.0600317.0885444.0903908l8.9615059-8.0105181c-.0298031-.0302424-.0596748-.0601759-.0895466-.0903359Z"/>
        <path class="cls-11" d="M225.3966488,146.9348004c-.3366747-19.4930623-7.1580138-36.9196967-17.2832405-47.2108447-.0298305-.0302973-.0596886-.0602308-.0895603-.0903908l-8.96049,8.0105181c.0295972.0301394.0590022.0600317.0885444.0903908,7.6171132,7.8242866,12.8416187,22.3776681,13.3167934,39.1962082.0012218.0423229.0024298.0846595.003583.1270098l12.9264292.0041595c-.0007001-.0423503-.0013865-.0847006-.0020592-.127051Z"/>
        <path class="cls-12" d="M225.398708,147.0618102c-.0007001-.0423229-.0013865-.0846595-.0020454-.1270098l-12.927953-.0041595c.0012218.0423091.0024161.0846457.003583.1270098.0211958.7893633.0316838,1.5835038.0314916,2.3824354,0,4.585558-.6848671,8.2923296-2.0777602,10.9685129-.0206466.0396734-.0417463.0795252-.0626812.1187594l9.6386442,10.0245332c.0238178-.0363238.0473472-.0725515.0710277-.1090812,3.4992071-5.3992606,5.3362774-12.8997697,5.3362774-21.9953278.0000412-.4630805-.0034869-.9249666-.0105841-1.3856722Z"/>
        <path class="cls-7" d="M210.4260926,160.4085851c-.0206466.0396734-.0417463.0795252-.0626812.1187594-1.2055495,2.2557962-2.9261668,3.7603376-5.1751952,4.418257l4.3940824,13.8477991c.5817849-.1975708,1.1482496-.4194123,1.6993529-.6655109.1646377-.0732654.3278889-.1487135.4897536-.2263168.0933492-.0446703.186259-.090027.2787845-.1360564,2.9305048-1.478788,5.4531972-3.6543452,7.346634-6.33569.1212304-.1679873.241335-.3373749.3590785-.5100433.082916-.1215461.1649535-.2442179.2461535-.3680016.0238178-.0363238.0473472-.0725515.0710277-.1090812l-9.6469907-10.0341152Z"/>
        <path class="cls-4" d="M202.3906653,165.3236245c-1.3896533.0333037-2.7699579-.235487-4.0455742-.7877983l-4.4990452,14.1773903c2.5286641.8639328,5.2262352,1.25324,8.2343983,1.25324,2.5907825.0244355,5.1673154-.38604,7.6222474-1.2143216l-4.392888-13.8430768c-.9467802.2836854-1.9308176.4234345-2.9191381.4145664Z"/>
        <path class="cls-5" d="M193.3878113,160.4747807c-.0276616-.0319446-.0554055-.0641226-.083218-.0965615l-10.3524221,10.7666453c.0289245.0309974.0578628.061885.0868147.0926628,3.5971825,3.8333834,7.0318551,6.2113846,10.9274392,7.5164471l4.4955172-14.166916c-1.6415725-.7051156-3.2290985-1.9832167-5.074131-4.1122777Z"/>
        <path class="cls-6" d="M193.3045246,160.3782192c-3.1053148-3.6111437-6.9465642-9.6234887-12.9889319-19.3458314l-7.8740568-13.1325386-.0632441-.1058415h0l-9.1364944,13.7020921h0l.065111.1095068,5.5793422,9.3857641c5.4082249,9.0501738,9.8141681,15.5974233,14.0660852,20.1534252.0289245.0309974.0578628.0618713.0868147.0926628l10.3487705-10.7627466c-.0277302-.0318623-.0555428-.0640403-.0833965-.0964928Z"/>
      </g>
      <g>
        <path class="cls-2" d="M253.9272947,199.8430024h14.1754473v35.9277415h43.6876243v-35.9277415h14.1754473v85.5418131h-14.1754473v-36.4778754h-43.6876243v36.4778754h-14.1754473v-85.5418131Z"/>
        <path class="cls-2" d="M342.0037138,270.9653071c-2.7486684-5.0112193-4.1240029-10.8156315-4.1240029-17.414237,0-6.6396155,1.3753345-12.4650329,4.1240029-17.4752519,2.7506689-5.010219,6.5785998-8.9211706,11.4867935-11.7318545,4.9091939-2.8106839,10.6025784-4.2160258,17.0781532-4.2160258,6.4775753,0,12.1689593,1.4053419,17.0781532,4.2160258,4.9081936,2.8106839,8.738125,6.7216354,11.4867935,11.7318545,2.7506689,5.010219,4.1250032,10.8356364,4.1250032,17.4752519,0,6.5986055-1.3743342,12.4030178-4.1250032,17.414237-2.7486684,5.010219-6.5785998,8.9201704-11.4867935,11.7308542-4.9091939,2.8106839-10.6005779,4.2160258-17.0781532,4.2160258-6.4355651,0-12.1189472-1.4053419-17.0461454-4.2160258-4.9291987-2.8106839-8.7681323-6.7206352-11.5188012-11.7308542ZM389.6332968,253.5510701c0-6.3945559-1.7424237-11.5278048-5.2252707-15.3977464-3.482847-3.8699416-8.0959688-5.8044123-13.8393656-5.8044123s-10.3565186,1.9344707-13.8393656,5.8044123c-3.482847,3.8699416-5.2232702,9.0031906-5.2232702,15.3977464,0,6.3545461,1.7404233,11.46679,5.2232702,15.3367316,3.482847,3.8699416,8.0959688,5.8044123,13.8393656,5.8044123s10.3565186-1.9344707,13.8393656-5.8044123c3.482847-3.8699416,5.2252707-8.9821854,5.2252707-15.3367316Z"/>
        <path class="cls-2" d="M414.5013444,221.6563098h13.1361946v9.7753784c4.1140005-7.1277342,9.7353675-10.6926016,16.8641011-10.6926016,2.3215646,0,4.2160253.2040496,5.6823819.6111487v12.2819883c-2.0374955-.2850694-4.0529856-.4281042-6.0494712-.4281042-7.9839416,0-13.4212639,3.5848722-16.3139674,10.7536164v41.4270796h-13.3192391v-63.7285057Z"/>
        <path class="cls-2" d="M460.2644734,210.8716858c-1.6303965-1.6093916-2.4445945-3.6558895-2.4445945-6.1414943,0-2.5246143.814198-4.5821149,2.4445945-6.1705013,1.628396-1.5893867,3.7269063-2.3835799,6.2935305-2.3835799s4.663134.7941932,6.2935305,2.3835799c1.628396,1.5883865,2.4445945,3.6458871,2.4445945,6.1705013,0,2.4856048-.8161985,4.5321027-2.4445945,6.1414943-1.6303965,1.6093916-3.7269063,2.4135872-6.2935305,2.4135872s-4.6651345-.8041957-6.2935305-2.4135872ZM459.8983844,221.6563098h13.3192391v63.7285057h-13.3192391v-63.7285057Z"/>
        <path class="cls-2" d="M502.1176516,274.0810652h36.3558413v11.3037503h-52.8528532v-10.7536164l35.7446927-41.671139h-34.5223954v-11.3037503h51.0194073v10.6926016l-35.7446927,41.7321538Z"/>
        <path class="cls-2" d="M547.6687291,270.9653071c-2.7496687-5.0112193-4.1240029-10.8156315-4.1240029-17.414237,0-6.6396155,1.3743342-12.4650329,4.1240029-17.4752519s6.5785998-8.9211706,11.4867935-11.7318545c4.9081936-2.8106839,10.6015782-4.2160258,17.0781532-4.2160258s12.1689593,1.4053419,17.077153,4.2160258c4.9091939,2.8106839,8.738125,6.7216354,11.4877937,11.7318545,2.7496687,5.010219,4.1240029,10.8356364,4.1240029,17.4752519,0,6.5986055-1.3743342,12.4030178-4.1240029,17.414237-2.7496687,5.010219-6.5785998,8.9201704-11.4877937,11.7308542-4.9081936,2.8106839-10.6005779,4.2160258-17.077153,4.2160258-6.4365653,0-12.1189472-1.4053419-17.0471457-4.2160258-4.9291987-2.8106839-8.7681323-6.7206352-11.517801-11.7308542ZM595.2973118,253.5510701c0-6.3945559-1.7414235-11.5278048-5.2242705-15.3977464-3.482847-3.8699416-8.0959688-5.8044123-13.8393656-5.8044123s-10.3565186,1.9344707-13.8393656,5.8044123-5.2242705,9.0031906-5.2242705,15.3977464c0,6.3545461,1.7414235,11.46679,5.2242705,15.3367316,3.482847,3.8699416,8.0959688,5.8044123,13.8393656,5.8044123s10.3565186-1.9344707,13.8393656-5.8044123,5.2242705-8.9821854,5.2242705-15.3367316Z"/>
        <path class="cls-2" d="M620.1653594,221.6563098h13.1371948v9.2872597c4.9271982-7.2107544,11.7928679-10.8156315,20.5910075-10.8156315,7.5758424,0,13.401259,2.3635751,17.4742495,7.0877245,4.0729905,4.7261499,6.1114862,11.4877951,6.1114862,20.2859357v37.8832173h-13.3212396v-36.2948308c0-5.9464468-1.0592576-10.3255123-3.1767726-13.1361962-2.1185152-2.8106839-5.4383225-4.2160258-9.9604223-4.2160258-3.9509608,0-7.4338078,1.0182477-10.4475407,3.0547432-3.0157334,2.0374957-5.3763075,4.8881893-7.0877236,8.5540813v42.0382283h-13.3202393v-63.7285057Z"/>
      </g>
    </g>
  </g>
</svg>