<svg xmlns="http://www.w3.org/2000/svg" xmlns:xlink="http://www.w3.org/1999/xlink" viewBox="0 0 48 48" fill="currentColor" width="1em" height="1em" class="x1lliihq x1k90msu x2h7rmj x1qfuztq x1ucfbaa xmix8c7 x1xp8n7a"><path fill-rule="evenodd" clip-rule="evenodd" d="M15.852 22.172a5.26 5.26 0 0 1 3.3-3.09c1.676-1.45 2.514-3.22 2.514-5.312 0-1.272-.147-2.925-.441-4.96a3.333 3.333 0 0 1 3.798-3.772 6.57 6.57 0 0 1 5.552 5.845c.077.775.116 1.527.116 2.258 0 .947-.065 1.846-.194 2.697a13.407 13.407 0 0 1-.804 3h9.553a4.098 4.098 0 0 1 2.44 7.391 4.112 4.112 0 0 1 2.04 2.213c.177.459.274.957.274 1.478 0 1.457-.76 2.736-1.905 3.463a4.1 4.1 0 0 1-2.686 5.39v.065a3.607 3.607 0 0 1-3.606 3.606h-15.02a5.248 5.248 0 0 1-5.245-5.228l-.045-13.115v-.017c0-.675.128-1.32.36-1.912zm-3-.779c0-.724-.587-1.311-1.311-1.311h-6.23c-.724 0-1.311.587-1.311 1.311v19.673c0 .724.587 1.311 1.311 1.311h6.23c.724 0 1.311-.587 1.311-1.311V21.393z"></path></svg>