<?xml version="1.0" encoding="UTF-8"?>
<svg xmlns="http://www.w3.org/2000/svg" viewBox="0 0 1082.6 270">
  <defs>
    <style>
      .cls-1 {
        fill: none;
      }

      .cls-1, .cls-2 {
        stroke-width: 0px;
      }

      .cls-2 {
        fill: #fff;
      }
    </style>
  </defs>
  <g id="Artboard_outline" data-name="Artboard outline">
    <rect class="cls-1" width="1082.6" height="270"/>
  </g>
  <g id="Layer_1" data-name="Layer 1">
    <g>
      <g>
        <path class="cls-2" d="M569.03,92.9h14.18v35.93h43.69v-35.93h14.18v85.54h-14.18v-36.48h-43.69v36.48h-14.18v-85.54Z"/>
        <path class="cls-2" d="M657.11,164.02c-2.75-5.01-4.12-10.82-4.12-17.41s1.38-12.47,4.12-17.48c2.75-5.01,6.58-8.92,11.49-11.73,4.91-2.81,10.6-4.22,17.08-4.22s12.17,1.41,17.08,4.22c4.91,2.81,8.74,6.72,11.49,11.73,2.75,5.01,4.13,10.84,4.13,17.48s-1.37,12.4-4.13,17.41c-2.75,5.01-6.58,8.92-11.49,11.73-4.91,2.81-10.6,4.22-17.08,4.22s-12.12-1.41-17.05-4.22c-4.93-2.81-8.77-6.72-11.52-11.73ZM704.73,146.61c0-6.39-1.74-11.53-5.23-15.4-3.48-3.87-8.1-5.8-13.84-5.8s-10.36,1.93-13.84,5.8c-3.48,3.87-5.22,9-5.22,15.4s1.74,11.47,5.22,15.34c3.48,3.87,8.1,5.8,13.84,5.8s10.36-1.93,13.84-5.8c3.48-3.87,5.23-8.98,5.23-15.34Z"/>
        <path class="cls-2" d="M729.6,114.71h13.14v9.78c4.11-7.13,9.74-10.69,16.86-10.69,2.32,0,4.22.2,5.68.61v12.28c-2.04-.29-4.05-.43-6.05-.43-7.98,0-13.42,3.58-16.31,10.75v41.43h-13.32v-63.73Z"/>
        <path class="cls-2" d="M775.37,103.93c-1.63-1.61-2.44-3.66-2.44-6.14s.81-4.58,2.44-6.17c1.63-1.59,3.73-2.38,6.29-2.38s4.66.79,6.29,2.38c1.63,1.59,2.44,3.65,2.44,6.17s-.82,4.53-2.44,6.14c-1.63,1.61-3.73,2.41-6.29,2.41s-4.67-.8-6.29-2.41ZM775,114.71h13.32v63.73h-13.32v-63.73Z"/>
        <path class="cls-2" d="M817.22,167.14h36.36v11.3h-52.85v-10.75l35.74-41.67h-34.52v-11.3h51.02v10.69l-35.74,41.73Z"/>
        <path class="cls-2" d="M862.77,164.02c-2.75-5.01-4.12-10.82-4.12-17.41s1.37-12.47,4.12-17.48,6.58-8.92,11.49-11.73c4.91-2.81,10.6-4.22,17.08-4.22s12.17,1.41,17.08,4.22c4.91,2.81,8.74,6.72,11.49,11.73s4.12,10.84,4.12,17.48-1.37,12.4-4.12,17.41c-2.75,5.01-6.58,8.92-11.49,11.73-4.91,2.81-10.6,4.22-17.08,4.22s-12.12-1.41-17.05-4.22c-4.93-2.81-8.77-6.72-11.52-11.73ZM910.4,146.61c0-6.39-1.74-11.53-5.22-15.4-3.48-3.87-8.1-5.8-13.84-5.8s-10.36,1.93-13.84,5.8-5.22,9-5.22,15.4,1.74,11.47,5.22,15.34c3.48,3.87,8.1,5.8,13.84,5.8s10.36-1.93,13.84-5.8,5.22-8.98,5.22-15.34Z"/>
        <path class="cls-2" d="M935.27,114.71h13.14v9.29c4.93-7.21,11.79-10.82,20.59-10.82,7.58,0,13.4,2.36,17.47,7.09,4.07,4.73,6.11,11.49,6.11,20.29v37.88h-13.32v-36.29c0-5.95-1.06-10.33-3.18-13.14-2.12-2.81-5.44-4.22-9.96-4.22-3.95,0-7.43,1.02-10.45,3.05-3.02,2.04-5.38,4.89-7.09,8.55v42.04h-13.32v-63.73Z"/>
        <path class="cls-2" d="M253.93,92.9h16.93l28.78,52.06,28.78-52.06h16.56v85.54h-13.81v-65.56l-25.24,45.4h-12.95l-25.23-45.4v65.56h-13.81v-85.54Z"/>
        <path class="cls-2" d="M389.51,179.97c-6.4,0-12.02-1.42-16.86-4.25-4.85-2.83-8.63-6.75-11.33-11.76-2.71-5.01-4.06-10.75-4.06-17.23s1.32-12.36,3.97-17.41c2.65-5.05,6.32-9,11.03-11.85,4.7-2.85,10.11-4.28,16.22-4.28s11.29,1.44,15.67,4.31c4.38,2.87,7.75,6.89,10.11,12.07s3.54,11.24,3.54,18.21v3.79h-46.87c.86,5.21,2.96,9.32,6.32,12.31,3.36,2.99,7.61,4.49,12.74,4.49,4.11,0,7.66-.61,10.63-1.83,2.97-1.22,5.76-3.07,8.37-5.56l7.33,8.98c-7.29,6.68-16.23,10.02-26.82,10.02ZM399.59,129.23c-2.89-2.95-6.68-4.43-11.36-4.43s-8.38,1.51-11.46,4.52c-3.08,3.02-5.02,7.07-5.84,12.16h33.61c-.41-5.21-2.06-9.3-4.95-12.25Z"/>
        <path class="cls-2" d="M434.54,126.02h-12.71v-11.3h12.71v-18.7h13.32v18.7h19.31v11.3h-19.31v28.66c0,4.77.81,8.17,2.44,10.2,1.63,2.04,4.42,3.05,8.37,3.05,1.75,0,3.24-.07,4.46-.21,1.22-.14,2.57-.34,4.03-.58v11.18c-1.51.45-3.21.81-5.1,1.1s-3.88.43-5.96.43c-14.38,0-21.57-7.86-21.57-23.58v-30.25Z"/>
        <path class="cls-2" d="M536.59,178.44h-13.08v-8.92c-2.32,3.34-5.28,5.92-8.86,7.73-3.58,1.81-7.66,2.72-12.22,2.72-5.62,0-10.6-1.44-14.94-4.31-4.34-2.87-7.75-6.82-10.23-11.85-2.48-5.03-3.73-10.78-3.73-17.26s1.26-12.28,3.79-17.29,6.02-8.94,10.48-11.79c4.46-2.85,9.58-4.28,15.37-4.28,4.36,0,8.27.85,11.73,2.54,3.46,1.69,6.33,4.08,8.61,7.18v-8.19h13.08v63.73ZM523.26,137.02c-1.43-3.62-3.68-6.49-6.75-8.59-3.08-2.1-6.63-3.15-10.66-3.15-5.7,0-10.24,1.91-13.63,5.74-3.38,3.83-5.07,9-5.07,15.52s1.63,11.75,4.89,15.58c3.26,3.83,7.68,5.74,13.26,5.74,4.12,0,7.78-1.06,11-3.18,3.22-2.12,5.54-4.97,6.97-8.55v-19.12Z"/>
      </g>
      <path class="cls-2" d="M187.2,90c-11.11,0-19.79,8.36-27.64,18.99-10.8-13.75-19.83-18.99-30.64-18.99-22.03,0-38.92,28.68-38.92,59.03,0,18.99,9.19,30.97,24.58,30.97,11.08,0,19.04-5.22,33.21-29.98,0,0,5.9-10.43,9.97-17.61,1.42,2.3,2.92,4.77,4.5,7.43l6.64,11.17c12.94,21.65,20.15,28.99,33.21,28.99,14.99,0,23.34-12.14,23.34-31.53,0-31.78-17.26-58.47-38.23-58.47ZM136.99,143.32c-11.48,18-15.46,22.03-21.85,22.03s-10.49-5.78-10.49-16.08c0-22.03,10.99-44.57,24.08-44.57,7.09,0,13.02,4.1,22.1,17.09-8.62,13.22-13.84,21.51-13.84,21.51ZM180.32,141.05l-7.94-13.24c-2.15-3.49-4.21-6.71-6.2-9.65,7.16-11.05,13.06-16.55,20.08-16.55,14.59,0,26.26,21.48,26.26,47.86,0,10.06-3.29,15.89-10.12,15.89s-9.66-4.32-22.08-24.3Z"/>
    </g>
  </g>
</svg>