<svg width="16" height="16" viewBox="0 0 16 16" fill="none" xmlns="http://www.w3.org/2000/svg">
<path fill-rule="evenodd" clip-rule="evenodd" d="M2.66797 9.33333H9.33463C9.70283 9.33333 10.0013 9.63181 10.0013 10V12.6667C10.0013 13.403 9.40435 14 8.66797 14H7.54876C6.8665 12.8289 5.13611 12.8289 4.45385 14H3.33464C2.59826 14 2.0013 13.403 2.0013 12.6667V10C2.0013 9.63181 2.29978 9.33333 2.66797 9.33333ZM0.667969 10C0.667969 8.89543 1.5634 8 2.66797 8H9.33463C10.4392 8 11.3346 8.89543 11.3346 10V12.6667C11.3346 14.1394 10.1407 15.3333 8.66797 15.3333H7.29863C6.91773 15.3333 6.57521 15.1014 6.43375 14.7478C6.2776 14.3574 5.72501 14.3574 5.56886 14.7478C5.4274 15.1014 5.08487 15.3333 4.70397 15.3333H3.33464C1.86188 15.3333 0.667969 14.1394 0.667969 12.6667V10ZM4.35173 12.1087C4.76594 12.1087 5.10173 11.7729 5.10173 11.3587C5.10173 10.9445 4.76594 10.6087 4.35173 10.6087C3.93751 10.6087 3.60173 10.9445 3.60173 11.3587C3.60173 11.7729 3.93751 12.1087 4.35173 12.1087ZM7.65182 12.1087C8.06603 12.1087 8.40182 11.7729 8.40182 11.3587C8.40182 10.9445 8.06603 10.6087 7.65182 10.6087C7.2376 10.6087 6.90182 10.9445 6.90182 11.3587C6.90182 11.7729 7.2376 12.1087 7.65182 12.1087Z" fill="#606060"/>
<path fill-rule="evenodd" clip-rule="evenodd" d="M2.66797 9.33333H9.33463C9.70283 9.33333 10.0013 9.63181 10.0013 10V12.6667C10.0013 13.403 9.40435 14 8.66797 14H7.54876C6.8665 12.8289 5.13611 12.8289 4.45385 14H3.33464C2.59826 14 2.0013 13.403 2.0013 12.6667V10C2.0013 9.63181 2.29978 9.33333 2.66797 9.33333ZM0.667969 10C0.667969 8.89543 1.5634 8 2.66797 8H9.33463C10.4392 8 11.3346 8.89543 11.3346 10V12.6667C11.3346 14.1394 10.1407 15.3333 8.66797 15.3333H7.29863C6.91773 15.3333 6.57521 15.1014 6.43375 14.7478C6.2776 14.3574 5.72501 14.3574 5.56886 14.7478C5.4274 15.1014 5.08487 15.3333 4.70397 15.3333H3.33464C1.86188 15.3333 0.667969 14.1394 0.667969 12.6667V10ZM4.35173 12.1087C4.76594 12.1087 5.10173 11.7729 5.10173 11.3587C5.10173 10.9445 4.76594 10.6087 4.35173 10.6087C3.93751 10.6087 3.60173 10.9445 3.60173 11.3587C3.60173 11.7729 3.93751 12.1087 4.35173 12.1087ZM7.65182 12.1087C8.06603 12.1087 8.40182 11.7729 8.40182 11.3587C8.40182 10.9445 8.06603 10.6087 7.65182 10.6087C7.2376 10.6087 6.90182 10.9445 6.90182 11.3587C6.90182 11.7729 7.2376 12.1087 7.65182 12.1087Z" fill="#67788A"/>
<path fill-rule="evenodd" clip-rule="evenodd" d="M13.9987 2.66927H8.66536V2.66927V6.66927H7.33203V2.66927C7.33203 1.93289 7.92898 1.33594 8.66536 1.33594H13.9987C14.7351 1.33594 15.332 1.93289 15.332 2.66927V12.6693C15.332 13.4057 14.7351 14.0026 13.9987 14.0026H12.666V12.6693H13.9987V2.66927ZM9.9987 4.66927C9.9987 4.30108 10.2972 4.0026 10.6654 4.0026H11.9987C12.3669 4.0026 12.6654 4.30108 12.6654 4.66927C12.6654 5.03746 12.3669 5.33594 11.9987 5.33594H10.6654C10.2972 5.33594 9.9987 5.03746 9.9987 4.66927Z" fill="#606060"/>
<path fill-rule="evenodd" clip-rule="evenodd" d="M13.9987 2.66927H8.66536V2.66927V6.66927H7.33203V2.66927C7.33203 1.93289 7.92898 1.33594 8.66536 1.33594H13.9987C14.7351 1.33594 15.332 1.93289 15.332 2.66927V12.6693C15.332 13.4057 14.7351 14.0026 13.9987 14.0026H12.666V12.6693H13.9987V2.66927ZM9.9987 4.66927C9.9987 4.30108 10.2972 4.0026 10.6654 4.0026H11.9987C12.3669 4.0026 12.6654 4.30108 12.6654 4.66927C12.6654 5.03746 12.3669 5.33594 11.9987 5.33594H10.6654C10.2972 5.33594 9.9987 5.03746 9.9987 4.66927Z" fill="#67788A"/>
</svg>
