<svg xmlns="http://www.w3.org/2000/svg" viewBox="0 0 144 145" fill="white" width="1em" height="1em" class="x1lliihq x1k90msu x2h7rmj x1qfuztq xtk6v10 xlup9mm x1kky2od"><path fill-rule="evenodd" clip-rule="evenodd" d="M119.25 138.875c12.841 0 23.25-29.549 23.25-66 0-36.45-10.409-66-23.25-66S96 36.425 96 72.875c0 36.451 10.409 66 23.25 66zm0-15.675c5.385 0 9.75-22.531 9.75-50.325 0-27.794-4.365-50.325-9.75-50.325s-9.75 22.531-9.75 50.325c0 27.794 4.365 50.325 9.75 50.325zM87.137 65.09c-6.237.396-8.131-2.976-10.675-7.504-2.174-3.868-4.821-8.58-11.054-12.504-13.9-8.754-31.72-8.147-44.997 1.5L5.359 57.518a8.059 8.059 0 0 0-1.785 11.268 8.059 8.059 0 0 0 11.268 1.785l15.052-10.936a24.357 24.357 0 0 1 6.581-3.38L31.11 71.348c-3.058 8.312.912 12.712 5.54 17.84 1.024 1.135 2.08 2.305 3.1 3.562l14.811 18.764-4.752 15.419c-1.305 4.251 1.082 8.78 5.333 10.085 4.251 1.305 8.78-1.082 10.086-5.333l5.346-17.346a12.107 12.107 0 0 0-1.774-10.677L55.834 85.816l6.46-21.233.032-.085c3.593 8.14 9.771 15.546 24.778 15.164a221.01 221.01 0 0 1 .033-14.572zM72.995 13.363a12.1 12.1 0 1 1-19.58 14.226 12.1 12.1 0 0 1 19.58-14.226zm-47.83 78.262-6.309 15.756-14.99 14.973a8.096 8.096 0 0 0 0 11.439 8.085 8.085 0 0 0 11.432 0l15.57-15.58a12.113 12.113 0 0 0 2.676-4.065l3.659-9.14-10.271-11.212c-.631-.707-1.237-1.414-1.767-2.171z"></path></svg>